# xmcd
#
# Track frame offsets:
#	150
#	7670
#	9167
#	10825
#	11837
#	12645
#	14255
#	14917
#	17520
#	20147
#	22700
#	25110
#	27700
#	30325
#	32920
#	34067
#	35052
#	36117
#	38107
#	39002
#	39840
#	40532
#	41695
#	42832
#	43647
#	44415
#	45147
#	45967
#	46982
#	47772
#	48425
#	49387
#	50282
#	51080
#	52282
#	53000
#	53915
#	54777
#	55745
#	56550
#	57327
#	57962
#	59422
#	60112
#	60932
#	61610
#	63695
#	64777
#	65817
#	66697
#	67707
#	69742
#	71502
#	73120
#	76772
#	80075
#
# Disc length: 1100 seconds
#
# Revision: 1
# Processed by: cddbd v1.5.2PL0 Copyright (c) Steve Scherf et al.
# Submitted via: audiograbber 1.82.01
#
DISCID=ed044a38
DTITLE=Martin Rost - Rock Blues Country Harp
DYEAR=1993
DGENRE=Blues
TTITLE0=Der zweite Versuch
TTITLE1=Swing-Thema
TTITLE2=Can Can-Thema
TTITLE3=Walzer-Thema
TTITLE4=Wah-Wah, langsam, schnell
TTITLE5=C-Dur Harp
TTITLE6=C-Dur Harp, Bluestöne
TTITLE7=Bluseschema, cross gespielt
TTITLE8=Blues-Variante 1 
TTITLE9=Blues-Variante 3
TTITLE10=Bending
TTITLE11=Blues Variation 1
TTITLE12=Blues Variation 2
TTITLE13=Blues Variation 3
TTITLE14=Bending, Beispiel
TTITLE15=Triller
TTITLE16=Triller
TTITLE17=Zugfahrt
TTITLE18=Intro 1
TTITLE19=Intro 2
TTITLE20=Intro 3
TTITLE21=Intro 4
TTITLE22=Intro 5
TTITLE23="gerade" Version des Intros
TTITLE24=Ending 1
TTITLE25=Ending 2
TTITLE26=Ending 3
TTITLE27=Ending 4
TTITLE28=Ending 5
TTITLE29=Hoochie Coochie Man (W. Dixon)
TTITLE30=Riff für die Bluesharp
TTITLE31=Riff für die Bluesharp
TTITLE32=Riff für die Bluesharp
TTITLE33=Riff für die Bluesharp
TTITLE34=Riff für die Bluesharp
TTITLE35=Riff für die Bluesharp
TTITLE36=Riff für die Bluesharp
TTITLE37=Riff für die Rockharp
TTITLE38=Riff für die Rockharp
TTITLE39=Riff für die Rockharp
TTITLE40=Riff für die Rockharp
TTITLE41=Riff für die Rockharp
TTITLE42=Riff für die Rockharp
TTITLE43=Riff für die Rockharp
TTITLE44=Riff für die Rockharp
TTITLE45=Mini Rock Solo
TTITLE46=Riff für die Countryharp
TTITLE47=Riff für die Countryharp
TTITLE48=Riff für die Countryharp
TTITLE49=Riff für die Countryharp
TTITLE50=Riff für die Countryharp
TTITLE51=Riff für die Countryharp
TTITLE52=Riff für die Countryharp
TTITLE53=Solo-Beispiel 1
TTITLE54=Solo-Beispiel 1
TTITLE55=Good Morning Little Schoolgirl
EXTD=
EXTT0=
EXTT1=
EXTT2=
EXTT3=
EXTT4=
EXTT5=
EXTT6=
EXTT7=
EXTT8=
EXTT9=
EXTT10=
EXTT11=
EXTT12=
EXTT13=
EXTT14=
EXTT15=
EXTT16=
EXTT17=
EXTT18=
EXTT19=
EXTT20=
EXTT21=
EXTT22=
EXTT23=
EXTT24=
EXTT25=
EXTT26=
EXTT27=
EXTT28=
EXTT29=
EXTT30=
EXTT31=
EXTT32=
EXTT33=
EXTT34=
EXTT35=
EXTT36=
EXTT37=
EXTT38=
EXTT39=
EXTT40=
EXTT41=
EXTT42=
EXTT43=
EXTT44=
EXTT45=
EXTT46=
EXTT47=
EXTT48=
EXTT49=
EXTT50=
EXTT51=
EXTT52=
EXTT53=
EXTT54=
EXTT55=
PLAYORDER=
